<?xml version="1.0" encoding="utf-8"?>
<!-- Generator: Adobe Illustrator 22.0.1, SVG Export Plug-In . SVG Version: 6.00 Build 0)  -->
<svg version="1.1" id="Layer_1" xmlns="http://www.w3.org/2000/svg" xmlns:xlink="http://www.w3.org/1999/xlink" x="0px" y="0px"
	 viewBox="0 0 1296 1728" style="enable-background:new 0 0 1296 1728;" xml:space="preserve">
<style type="text/css">
	.st0{fill:#FFFFFF;}
	.st1{fill:#FFFFFF;stroke:#000000;stroke-width:8.6016;stroke-miterlimit:10;}
	.st2{fill:#FFFFFF;stroke:#000000;stroke-width:7;stroke-miterlimit:10;}
	.st3{stroke:#000000;stroke-width:1.2739;stroke-miterlimit:10;}
	.st4{stroke:#000000;stroke-width:2.9577;stroke-miterlimit:10;}
	.st5{font-family:'Cairo-Black';}
	.st6{font-size:68px;}
	.st7{fill:#FFFFFF;stroke:#000000;stroke-width:1.5555;stroke-miterlimit:10;}
	.st8{fill:#FFFFFF;stroke:#000000;stroke-width:8;stroke-miterlimit:10;}
	.st9{fill:none;stroke:#000000;stroke-width:4.4854;stroke-miterlimit:10;}
</style>
<rect class="st0" width="1296" height="1743"/>
<ellipse transform="matrix(0.2502 -0.9682 0.9682 0.2502 119.3252 993.9514)" cx="701.4" cy="419.9" rx="61" ry="21"/>
<ellipse transform="matrix(0.2502 -0.9682 0.9682 0.2502 108.8723 951.5785)" cx="668.8" cy="405.5" rx="61" ry="21"/>
<ellipse transform="matrix(0.5 -0.866 0.866 0.5 -21.3568 738.0525)" cx="628.5" cy="387.5" rx="61" ry="21"/>
<g>
	<path d="M540.4,479c1.2-7.2,3.4-13.9,6-20.4c2.6-6.5,5.8-12.7,9.5-18.6c7.3-11.9,16.3-22.6,26.9-32c10.5-9.4,22.5-17.5,35.7-23.8
		c13.2-6.3,27.5-10.8,42.6-13c15.1-2.2,31-2,46.8,1.4c15.7,3.4,31.3,10.1,44.3,20.3c0.8,0.6,1.6,1.3,2.4,1.9
		c0.4,0.4,0.7,0.6,1.4,1.1c0.6,0.5,1.2,1,1.8,1.5c2.3,2,4.2,4,5.9,6c3.3,4,5.7,8,7.6,11.8c3.7,7.7,5.6,15,6.8,22.2
		c1.1,7.2,1.5,14.2,1.2,21.3c-0.2,3.5-0.5,7.1-1,10.6c-0.6,3.6-1.2,7.1-2.2,10.8c-6.3-4.2-11.6-8.6-16.8-12.8
		c-5.2-4.2-10-8.2-14.7-11.9c-4.6-3.6-9.1-6.8-13-8.7c-1.9-1-3.7-1.5-4.9-1.6c-0.6,0-1.1,0.1-1.3,0.4c0.2,0.5-1.4,0-2.3-0.2
		c-8.4-1.8-16.6-2.5-25.2-2.6c-8.5-0.1-17.4,0.5-26.6,1.6c-18.4,2.3-38,6.9-59.3,13c-10.6,3-21.7,6.4-33.4,10.1l-18.1,5.7
		C554,475.2,547.5,477.3,540.4,479z"/>
</g>
<path class="st1" d="M698.6,696.4h-76.7c-50.4,0-91.2-40.8-91.2-91.2v-76.7c0-50.4,40.8-91.2,91.2-91.2h76.7
	c50.4,0,91.2,40.8,91.2,91.2v76.7C789.8,655.6,749,696.4,698.6,696.4z"/>
<path class="st2" d="M625.6,565.4h-32.3c-15.4,0-27.9-12.5-27.9-27.9v-15.6c0-15.4,12.5-27.9,27.9-27.9h32.3
	c15.4,0,27.9,12.5,27.9,27.9v15.6C653.5,552.9,641,565.4,625.6,565.4z"/>
<path class="st2" d="M727.2,565.4h-32.3c-15.4,0-27.9-12.5-27.9-27.9v-15.6c0-15.4,12.5-27.9,27.9-27.9h32.3
	c15.4,0,27.9,12.5,27.9,27.9v15.6C755.1,552.9,742.6,565.4,727.2,565.4z"/>
<g>
	<path class="st3" d="M736.7,379.9"/>
</g>
<ellipse class="st4" cx="611.1" cy="529.7" rx="9.3" ry="14.1"/>
<ellipse class="st4" cx="709.4" cy="529.7" rx="9.3" ry="14.1"/>
<text transform="matrix(1 0 0 1 461.5716 815.2856)" class="st5 st6">Amir Makram</text>
<path d="M736,644v50.4c0,27.3-22.1,49.4-49.4,49.4h-50.4c-27.3,0-49.4-22.1-49.4-49.4V644c0-27.3,22.1-49.4,49.4-49.4h50.4
	C713.9,594.6,736,616.7,736,644z"/>
<path class="st7" d="M671.1,676.3h-19.4c-21.8,0-39.5-17.7-39.5-39.5v-16.8c0-2.4,1.9-4.3,4.3-4.3h89.8c2.4,0,4.3,1.9,4.3,4.3v16.8
	C710.6,658.6,692.9,676.3,671.1,676.3z"/>
<path class="st8" d="M665.7,664.2h-11.6c-13.1,0-23.6-10.6-23.6-23.6v-10c0-1.4,1.1-2.6,2.6-2.6h53.8c1.4,0,2.6,1.1,2.6,2.6v10
	C689.3,653.6,678.8,664.2,665.7,664.2z"/>
<line class="st9" x1="669.8" y1="515.6" x2="652.8" y2="515.6"/>
</svg>
